<?xml version="1.0" encoding="UTF-8" standalone="no"?>
<!DOCTYPE svg PUBLIC "-//W3C//DTD SVG 1.1//EN" "http://www.w3.org/Graphics/SVG/1.1/DTD/svg11.dtd">
<svg width="100%" height="100%" viewBox="0 0 179 52" version="1.1" xmlns="http://www.w3.org/2000/svg" xmlns:xlink="http://www.w3.org/1999/xlink" xml:space="preserve" xmlns:serif="http://www.serif.com/" style="fill-rule:evenodd;clip-rule:evenodd;stroke-linejoin:round;stroke-miterlimit:2;">
    <g transform="matrix(1,0,0,1,-3620,-60)">
        <g transform="matrix(1.29231,0,0,0.856463,1288.12,0)">
            <g id="_5m5v-logo" serif:id="5m5v logo" transform="matrix(0.0991547,0,0,0.149613,1802.33,59.5258)">
                <g id="minutes" transform="matrix(1,0,0,1,226.23,231.15)">
                    <g id="Curve" transform="matrix(220.83,0,0,220.83,0,0)">
                        <path d="M0.074,0L0.074,-0.716L0.217,-0.716L0.386,-0.209C0.402,-0.162 0.413,-0.126 0.42,-0.103C0.429,-0.129 0.441,-0.167 0.458,-0.218L0.63,-0.716L0.757,-0.716L0.757,0L0.666,0L0.666,-0.599L0.458,0L0.373,0L0.166,-0.609L0.166,0L0.074,0Z" style="fill:rgb(0,145,126);"/>
                    </g>
                    <g id="Curve1" serif:id="Curve" transform="matrix(220.83,0,0,220.83,183.953,0)">
                        <rect x="0.093" y="-0.716" width="0.095" height="0.716" style="fill:rgb(0,145,126);"/>
                    </g>
                    <g id="Curve2" serif:id="Curve" transform="matrix(220.83,0,0,220.83,245.307,0)">
                        <path d="M0.076,0L0.076,-0.716L0.173,-0.716L0.549,-0.154L0.549,-0.716L0.64,-0.716L0.64,0L0.543,0L0.167,-0.563L0.167,0L0.076,0Z" style="fill:rgb(0,145,126);"/>
                    </g>
                    <g id="Curve3" serif:id="Curve" transform="matrix(220.83,0,0,220.83,404.783,0)">
                        <path d="M0.547,-0.716L0.642,-0.716L0.642,-0.302C0.642,-0.23 0.633,-0.173 0.617,-0.131C0.601,-0.089 0.572,-0.054 0.529,-0.028C0.487,-0.001 0.431,0.012 0.362,0.012C0.295,0.012 0.24,0.001 0.197,-0.022C0.155,-0.046 0.124,-0.079 0.106,-0.123C0.088,-0.167 0.079,-0.226 0.079,-0.302L0.079,-0.716L0.173,-0.716L0.173,-0.303C0.173,-0.241 0.179,-0.195 0.191,-0.165C0.202,-0.136 0.222,-0.113 0.25,-0.097C0.278,-0.081 0.313,-0.073 0.354,-0.073C0.423,-0.073 0.473,-0.089 0.502,-0.121C0.532,-0.152 0.547,-0.213 0.547,-0.303L0.547,-0.716Z" style="fill:rgb(0,145,126);"/>
                    </g>
                    <g id="Curve4" serif:id="Curve" transform="matrix(220.83,0,0,220.83,564.259,0)">
                        <path d="M0.259,0L0.259,-0.631L0.023,-0.631L0.023,-0.716L0.591,-0.716L0.591,-0.631L0.354,-0.631L0.354,0L0.259,0Z" style="fill:rgb(0,145,126);"/>
                    </g>
                    <g id="Curve5" serif:id="Curve" transform="matrix(220.83,0,0,220.83,699.151,0)">
                        <path d="M0.079,0L0.079,-0.716L0.597,-0.716L0.597,-0.631L0.174,-0.631L0.174,-0.412L0.57,-0.412L0.57,-0.328L0.174,-0.328L0.174,-0.084L0.613,-0.084L0.613,0L0.079,0Z" style="fill:rgb(0,145,126);"/>
                    </g>
                    <g id="Curve6" serif:id="Curve" transform="matrix(220.83,0,0,220.83,846.443,0)">
                        <path d="M0.045,-0.23L0.134,-0.238C0.139,-0.202 0.148,-0.173 0.164,-0.15C0.179,-0.127 0.203,-0.108 0.236,-0.094C0.268,-0.08 0.305,-0.073 0.346,-0.073C0.382,-0.073 0.414,-0.078 0.441,-0.089C0.469,-0.1 0.49,-0.114 0.503,-0.133C0.517,-0.152 0.523,-0.172 0.523,-0.194C0.523,-0.217 0.517,-0.236 0.504,-0.253C0.491,-0.27 0.469,-0.284 0.439,-0.295C0.42,-0.303 0.378,-0.315 0.312,-0.33C0.246,-0.346 0.2,-0.361 0.174,-0.375C0.14,-0.393 0.114,-0.415 0.097,-0.442C0.081,-0.468 0.072,-0.498 0.072,-0.531C0.072,-0.567 0.083,-0.601 0.103,-0.632C0.124,-0.663 0.153,-0.687 0.193,-0.704C0.232,-0.72 0.276,-0.728 0.324,-0.728C0.377,-0.728 0.424,-0.719 0.465,-0.702C0.505,-0.685 0.536,-0.66 0.558,-0.627C0.58,-0.594 0.592,-0.556 0.593,-0.514L0.502,-0.507C0.498,-0.553 0.481,-0.587 0.453,-0.61C0.425,-0.633 0.383,-0.645 0.328,-0.645C0.271,-0.645 0.229,-0.634 0.203,-0.613C0.177,-0.592 0.164,-0.567 0.164,-0.537C0.164,-0.511 0.173,-0.49 0.191,-0.474C0.21,-0.457 0.257,-0.44 0.334,-0.423C0.411,-0.405 0.464,-0.39 0.493,-0.377C0.534,-0.358 0.565,-0.333 0.585,-0.304C0.605,-0.274 0.615,-0.241 0.615,-0.202C0.615,-0.164 0.604,-0.128 0.582,-0.094C0.56,-0.061 0.529,-0.035 0.488,-0.016C0.447,0.003 0.401,0.012 0.35,0.012C0.285,0.012 0.231,0.003 0.187,-0.016C0.143,-0.035 0.109,-0.063 0.084,-0.101C0.059,-0.139 0.046,-0.182 0.045,-0.23Z" style="fill:rgb(0,145,126);"/>
                    </g>
                </g>
                <g id="leaves">
                    <path id="Curves" d="M1252.55,200C1249.27,199.88 1230.92,205.59 1219.03,210.49C1212.17,213.29 1206.22,215.16 1205.81,214.69C1205.4,214.22 1206.43,212.12 1208.17,210.03C1212.37,205.03 1223.17,188.22 1222.62,187.52C1221.9,186.82 1202.74,195.91 1197.51,199.41C1191.69,203.534 1187.59,209.665 1186,216.62C1183.85,226.3 1181.18,228.05 1141.82,245.9C1094.98,267.12 1070.68,273.31 1033.58,273.31C1018.82,273.31 1014,272.26 1020.66,270.51C1037.99,265.73 1081.34,244.73 1079.81,241.82C1079.5,241.12 1077.24,240.65 1074.89,240.65C1072.54,240.65 1063,239.6 1053.77,238.43C1041.06,236.8 1035.22,236.43 1029.68,237.27C1008.68,240.27 1004.16,242.63 999.75,252.66C998.22,255.93 996.58,259.08 995.96,259.54C992.546,260.808 989.056,261.86 985.51,262.69L976.18,265.14L956.29,259.89C945.29,256.98 925.03,251.26 911.19,247.06C858.61,231.32 843.54,227.35 815.56,221.99C806.02,220.24 798.03,218.49 797.72,217.99C796.72,216.83 799.36,214.14 809.1,206.8L818.73,199.68L822.73,202.36C829.29,207.03 832.06,207.96 838.93,207.96C851.74,207.96 867.01,200.27 883.41,185.45C904.22,166.68 947.89,119.45 945.32,118.51C944.61,118.16 936.32,118.97 926.87,120.37C917.42,121.77 905.14,123.29 899.51,123.99C891.813,125.269 884.209,127.06 876.75,129.35C848.75,137.98 831.34,148.25 822.63,161.08C816.27,170.64 814.84,174.84 814.84,184.64L814.84,192.8L798.75,205.05C784.91,215.54 781.94,217.29 778.45,217.29C770.56,217.29 745.45,222.08 729.25,226.62C705.47,233.39 696.76,236.89 669.49,250.77C636.9,267.33 615.68,276.89 614.65,275.77C614.14,275.18 616.29,267.72 619.57,258.85C626.13,241.24 624.57,242.76 637.2,241.36C655.14,239.36 668.98,218.03 680.46,174.18C684.66,157.97 697.37,91.49 696.76,88.34C696.55,87.17 693.58,89.04 686.76,94.99C656.11,121.11 625.88,157.73 615.63,180.83C609.37,195.06 606.71,216.63 610.09,225.5C611.489,228.716 613.243,231.765 615.32,234.59C617.397,237.415 618.91,239.49 619.01,239.49C619.11,239.49 613.47,252.79 613.47,252.79C610.47,260.02 607.02,269.23 605.68,273.2C603.12,281.48 603.02,281.48 590.62,284.98C559.15,293.84 522.04,292.44 501.75,281.6C493.03,276.93 485.55,269.93 467.2,249.17C455.2,235.64 451.32,230.51 452.14,229.46C453.57,227.36 468.84,216.17 470.14,216.17C472.073,216.714 473.931,217.496 475.67,218.5C478.764,219.92 482.108,220.712 485.51,220.83C492.58,220.83 505.19,213.37 518.62,201.35C527.62,193.19 564.75,151.44 564.75,149.35C564.75,148.88 561.36,148.76 557.37,149.11C528.97,151.45 494.12,165.21 477.11,180.84C468.8,188.54 467.16,192.15 466.96,203L466.86,211.74L456.4,219.91L445.84,228.07L437.03,224.46C424.22,219.21 412.03,217.11 394.08,217.11C364.76,217.11 331.35,223.99 285.22,239.5C275.79,242.77 267.49,245.33 266.77,245.33C265.647,245.509 264.57,245.906 263.6,246.5C262.67,247.2 251.91,251.5 239.81,256.3C227.71,261.1 209.39,268.41 199,272.84C180.86,280.65 180.24,281 180.75,283.84C181.57,288.84 182.8,297.84 186.8,297.84C187.52,297.84 197.05,293.76 208.02,288.74C234.77,276.5 267.88,262.74 291.02,254.45C310.49,247.45 341.96,238.01 350.88,236.61C355.39,235.79 356.1,236.02 357.88,238.47C359.82,241.16 359.82,241.16 359.21,238.71C358.39,235.21 360.44,234.16 371.51,232.76C394.26,229.61 410.77,230.08 424.81,234.27C439.06,238.47 444.7,242.67 463.04,263.2C472.47,273.58 482.83,284.2 486.11,286.53C492.56,291.42 504.35,297.37 509.89,298.53C511.83,298.88 513.78,299.81 514.29,300.63C515.11,301.63 520.96,316.96 527.11,334.1C527.93,336.67 527.62,338.42 524.44,345.65C519.93,355.79 519.62,361.74 522.7,374.65C525.98,388.06 532.54,401.24 542.17,413.6C556.53,432.03 600.4,475.18 601.42,471.8C601.63,471.1 600.6,465.5 599.17,459.21C597.74,452.92 595.48,440.89 594.04,432.61C590.35,411.5 580.04,377.8 570.77,357.04C565.77,345.72 552.84,335.93 540.84,334.41C536.33,333.83 534.49,333.01 533.46,331.15C530.46,325.66 522.6,303.27 523.46,302.45C523.87,301.99 529.4,302.1 535.55,302.69C543.972,303.518 552.456,303.478 560.87,302.57C593.16,299.57 614.27,291.96 664.7,265.13C679.26,257.43 691.7,251.13 692.38,251.13C693.06,251.13 696.99,252.88 701.2,255.13C707.272,258.205 713.497,260.969 719.85,263.41C729.59,267.26 730.92,268.19 731.43,270.88C734,284.17 735.12,286.62 741.89,294.32C746.17,299.507 751.474,303.755 757.47,306.8C773.05,315.31 777.05,315.9 814.36,315.8C847.77,315.57 857.2,314.75 875.36,309.97L882.94,307.97L880.17,305.52C878.74,304.23 869.51,297.59 859.78,290.94C850.05,284.29 838.78,276.24 834.87,273.21C820.82,262.6 795.51,249.77 778.08,244.63C766.6,241.25 764.55,241.25 755.53,244.05C747.13,246.73 742.92,249.05 737.29,254.2C734.93,256.41 732.57,258.2 731.96,258.2C728.96,258.2 705.2,247.36 705.2,245.96C705.2,243.28 735.13,232.43 752.05,229.05C771.83,225.05 784.64,225.55 813.85,230.8C831.18,234.06 872.85,243.98 877.71,245.96C878.43,246.31 883.71,252.37 889.6,259.49C899.85,272.08 900.06,272.43 899.24,276.63C898.01,283.63 898.62,291.33 900.67,296.81C901.8,299.61 906.11,306.14 910.31,311.15C924.56,328.53 940.44,339.61 963.51,348.36C969.455,350.603 975.27,353.173 980.93,356.06C984.489,357.9 988.238,359.345 992.11,360.37L996.62,361.19L992.52,354.89C989.87,350.835 987.531,346.587 985.52,342.18C980.19,330.05 962.66,302.87 949.02,285.61C942.67,277.56 940.31,275.47 931.8,270.68L922,264.91L912.06,265.61L902.12,266.19L896.48,259.19C890.84,252.31 889.72,249.98 891.77,249.98C892.38,249.98 902.43,252.55 914.11,255.69C925.79,258.83 943.22,263.39 952.75,265.69C962.28,267.99 973.66,270.93 977.87,272.1C994.68,277 1005.13,278.28 1029.12,278.16C1044.9,278.05 1056.12,277.35 1064.48,276.07C1071.25,274.9 1078.42,274.07 1080.37,274.2C1082.32,274.33 1084.16,273.85 1084.47,273.27C1084.78,272.69 1090.47,270.35 1097.28,268.02C1113.99,262.19 1129.28,255.54 1162.37,239.44C1211.26,215.65 1221.82,210.99 1241.3,204.34C1248.35,201.93 1253.37,200 1252.55,200ZM992.92,269.57C987.07,268.17 987.07,266.31 992.81,264.33C998.35,262.46 997.73,262.33 1003.47,266.54C1006.24,268.64 1008.6,270.86 1008.6,271.44C1008.6,272.49 1001.22,271.67 992.92,269.57ZM1186.85,224.32C1186.34,224.32 1186.13,223.74 1186.44,223.15C1186.75,222.56 1187.26,221.99 1187.57,221.99C1187.88,221.99 1187.98,222.45 1187.98,223.15C1187.97,223.771 1187.47,224.284 1186.85,224.32Z" style="fill:rgb(188,219,108);"/>
                    <path id="Curve7" serif:id="Curve" d="M1302.27,191.2C1301.14,191.43 1296.63,191.9 1292.27,192.25C1287.91,192.6 1284.58,193.53 1284.99,194.11C1285.4,194.69 1286.53,195.11 1287.76,195.11C1288.99,195.11 1292.17,196.86 1294.83,199.11C1297.49,201.36 1301.6,203.31 1303.83,203.77C1307.52,204.47 1322.28,201.77 1324.83,200.04C1325.34,199.69 1322.83,198.29 1319.19,197.04C1315.55,195.79 1312.63,194.04 1312.83,193.42C1313.34,191.43 1307.7,190.26 1302.27,191.2Z" style="fill:rgb(188,219,108);"/>
                    <path id="Curve8" serif:id="Curve" d="M1329.22,192.48C1329.85,192.833 1330.63,192.786 1331.22,192.36C1331.63,192.01 1331.02,191.66 1329.89,191.78C1328.76,191.9 1328.4,192.13 1329.22,192.48Z" style="fill:rgb(188,219,108);"/>
                    <path id="Curve9" serif:id="Curve" d="M1278,194.81C1278.63,195.163 1279.41,195.12 1280,194.7C1280.41,194.35 1279.8,194 1278.67,194.11C1277.54,194.22 1277.15,194.46 1278,194.81Z" style="fill:rgb(188,219,108);"/>
                    <path id="Curve10" serif:id="Curve" d="M1271.82,196C1272.45,196.353 1273.24,196.306 1273.82,195.88C1274.23,195.53 1273.62,195.18 1272.49,195.3C1271.36,195.42 1271,195.63 1271.82,196Z" style="fill:rgb(188,219,108);"/>
                    <path id="Curve11" serif:id="Curve" d="M1265.67,197.15C1266.29,197.482 1267.05,197.435 1267.62,197.03C1268.03,196.68 1267.41,196.33 1266.29,196.45C1265.17,196.57 1264.85,196.8 1265.67,197.15Z" style="fill:rgb(188,219,108);"/>
                    <path id="Curve12" serif:id="Curve" d="M1260.55,198.31C1261.16,198.643 1261.92,198.6 1262.49,198.2C1262.9,197.85 1262.29,197.5 1261.16,197.61C1260.03,197.72 1259.73,198 1260.55,198.31Z" style="fill:rgb(188,219,108);"/>
                    <path id="Curve13" serif:id="Curve" d="M1255.42,199.48C1256.26,199.71 1257.14,199.71 1257.98,199.48C1258.6,199.13 1258.09,198.9 1256.65,198.9C1255.21,198.9 1254.7,199.13 1255.42,199.48Z" style="fill:rgb(188,219,108);"/>
                    <path id="Curve14" serif:id="Curve" d="M1392.77,206.94C1394.62,208.69 1409.48,216.04 1408.46,214.64C1407.12,212.77 1407.94,211.49 1410.61,211.49C1412.97,211.49 1412.97,209.63 1410.71,208.58C1408.45,207.53 1391.75,206 1392.77,206.94Z" style="fill:rgb(188,219,108);"/>
                    <path id="Curve15" serif:id="Curve" d="M361.71,246.25C362.63,248.25 362.71,249.86 361.91,252.55C360.07,258.61 360.58,269.34 362.91,274.82C366.6,283.1 400.53,319.49 402.48,317.16C402.68,316.93 401.55,312.03 399.81,306.43C398.07,300.83 396.02,293.25 395.09,289.75C392.33,279.37 384.54,262.93 379.51,256.86C376.789,253.352 373.23,250.584 369.16,248.81C366.62,247.754 364.182,246.466 361.88,244.96C360.68,243.8 360.68,243.92 361.71,246.25Z" style="fill:rgb(188,219,108);"/>
                    <path id="Curve16" serif:id="Curve" d="M1092.65,272.72C1091.29,273.403 1089.99,274.186 1088.75,275.06C1088.55,275.29 1089.88,277.15 1091.83,279.14C1099.72,287.42 1109.66,290.57 1121.66,288.47C1131.66,286.84 1139.8,284.74 1139.8,283.92C1139.8,283.57 1133.86,280.65 1126.68,277.5C1115.51,272.61 1112.43,271.67 1104.95,271.32C1098.59,271.09 1095.31,271.44 1092.65,272.72Z" style="fill:rgb(188,219,108);"/>
                </g>
                <g id="vegans" transform="matrix(1,0,0,1,243.06,434.69)">
                    <g id="Curve17" serif:id="Curve" transform="matrix(242.11,0,0,242.11,0,0)">
                        <path d="M0.282,0L0.004,-0.716L0.107,-0.716L0.293,-0.196C0.308,-0.154 0.32,-0.115 0.331,-0.079C0.342,-0.118 0.354,-0.157 0.369,-0.196L0.563,-0.716L0.659,-0.716L0.379,0L0.282,0Z" style="fill:rgb(0,65,56);"/>
                    </g>
                    <g id="Curve18" serif:id="Curve" transform="matrix(242.11,0,0,242.11,161.485,0)">
                        <path d="M0.079,0L0.079,-0.716L0.597,-0.716L0.597,-0.631L0.174,-0.631L0.174,-0.412L0.57,-0.412L0.57,-0.328L0.174,-0.328L0.174,-0.084L0.613,-0.084L0.613,0L0.079,0Z" style="fill:rgb(0,65,56);"/>
                    </g>
                    <g id="Curve19" serif:id="Curve" transform="matrix(242.11,0,0,242.11,322.971,0)">
                        <path d="M0.412,-0.281L0.412,-0.365L0.715,-0.365L0.715,-0.1C0.669,-0.063 0.621,-0.035 0.571,-0.016C0.522,0.003 0.471,0.012 0.419,0.012C0.349,0.012 0.285,-0.003 0.227,-0.033C0.17,-0.063 0.126,-0.107 0.097,-0.164C0.068,-0.221 0.053,-0.284 0.053,-0.354C0.053,-0.424 0.068,-0.489 0.097,-0.55C0.126,-0.61 0.168,-0.655 0.223,-0.684C0.277,-0.713 0.34,-0.728 0.412,-0.728C0.463,-0.728 0.51,-0.72 0.552,-0.703C0.594,-0.686 0.627,-0.663 0.65,-0.633C0.674,-0.603 0.692,-0.564 0.705,-0.516L0.619,-0.492C0.608,-0.529 0.595,-0.557 0.579,-0.578C0.563,-0.599 0.54,-0.616 0.511,-0.628C0.481,-0.641 0.448,-0.647 0.412,-0.647C0.369,-0.647 0.331,-0.64 0.3,-0.627C0.268,-0.614 0.243,-0.597 0.223,-0.575C0.204,-0.554 0.189,-0.53 0.178,-0.504C0.16,-0.46 0.151,-0.412 0.151,-0.36C0.151,-0.297 0.162,-0.243 0.184,-0.2C0.206,-0.157 0.238,-0.125 0.28,-0.104C0.322,-0.084 0.366,-0.073 0.414,-0.073C0.455,-0.073 0.495,-0.081 0.534,-0.097C0.573,-0.113 0.602,-0.13 0.623,-0.147L0.623,-0.281L0.412,-0.281Z" style="fill:rgb(0,65,56);"/>
                    </g>
                    <g id="Curves1" serif:id="Curves" transform="matrix(242.11,0,0,242.11,511.292,0)">
                        <path d="M-0.001,0L0.273,-0.716L0.375,-0.716L0.668,0L0.561,0L0.477,-0.217L0.178,-0.217L0.099,0L-0.001,0ZM0.205,-0.294L0.448,-0.294L0.373,-0.492C0.35,-0.552 0.333,-0.602 0.322,-0.641C0.313,-0.595 0.3,-0.549 0.284,-0.504L0.205,-0.294Z" style="fill:rgb(0,65,56);"/>
                    </g>
                    <g id="Curve20" serif:id="Curve" transform="matrix(242.11,0,0,242.11,672.777,0)">
                        <path d="M0.076,0L0.076,-0.716L0.173,-0.716L0.549,-0.154L0.549,-0.716L0.64,-0.716L0.64,0L0.543,0L0.167,-0.563L0.167,0L0.076,0Z" style="fill:rgb(0,65,56);"/>
                    </g>
                    <g id="Curve21" serif:id="Curve" transform="matrix(242.11,0,0,242.11,847.621,0)">
                        <path d="M0.045,-0.23L0.134,-0.238C0.139,-0.202 0.148,-0.173 0.164,-0.15C0.179,-0.127 0.203,-0.108 0.236,-0.094C0.268,-0.08 0.305,-0.073 0.346,-0.073C0.382,-0.073 0.414,-0.078 0.441,-0.089C0.469,-0.1 0.49,-0.114 0.503,-0.133C0.517,-0.152 0.523,-0.172 0.523,-0.194C0.523,-0.217 0.517,-0.236 0.504,-0.253C0.491,-0.27 0.469,-0.284 0.439,-0.295C0.42,-0.303 0.378,-0.315 0.312,-0.33C0.246,-0.346 0.2,-0.361 0.174,-0.375C0.14,-0.393 0.114,-0.415 0.097,-0.442C0.081,-0.468 0.072,-0.498 0.072,-0.531C0.072,-0.567 0.083,-0.601 0.103,-0.632C0.124,-0.663 0.153,-0.687 0.193,-0.704C0.232,-0.72 0.276,-0.728 0.324,-0.728C0.377,-0.728 0.424,-0.719 0.465,-0.702C0.505,-0.685 0.536,-0.66 0.558,-0.627C0.58,-0.594 0.592,-0.556 0.593,-0.514L0.502,-0.507C0.498,-0.553 0.481,-0.587 0.453,-0.61C0.425,-0.633 0.383,-0.645 0.328,-0.645C0.271,-0.645 0.229,-0.634 0.203,-0.613C0.177,-0.592 0.164,-0.567 0.164,-0.537C0.164,-0.511 0.173,-0.49 0.191,-0.474C0.21,-0.457 0.257,-0.44 0.334,-0.423C0.411,-0.405 0.464,-0.39 0.493,-0.377C0.534,-0.358 0.565,-0.333 0.585,-0.304C0.605,-0.274 0.615,-0.241 0.615,-0.202C0.615,-0.164 0.604,-0.128 0.582,-0.094C0.56,-0.061 0.529,-0.035 0.488,-0.016C0.447,0.003 0.401,0.012 0.35,0.012C0.285,0.012 0.231,0.003 0.187,-0.016C0.143,-0.035 0.109,-0.063 0.084,-0.101C0.059,-0.139 0.046,-0.182 0.045,-0.23Z" style="fill:rgb(0,65,56);"/>
                    </g>
                </g>
                <g id="_5" serif:id="5" transform="matrix(508.79,0,0,508.79,-5.68434e-14,432.52)">
                    <path d="M0.042,-0.188L0.134,-0.195C0.141,-0.15 0.156,-0.117 0.181,-0.094C0.206,-0.071 0.236,-0.06 0.271,-0.06C0.314,-0.06 0.35,-0.076 0.379,-0.108C0.408,-0.14 0.423,-0.182 0.423,-0.235C0.423,-0.285 0.409,-0.325 0.381,-0.354C0.352,-0.382 0.316,-0.397 0.27,-0.397C0.242,-0.397 0.216,-0.391 0.193,-0.378C0.171,-0.365 0.153,-0.348 0.14,-0.328L0.057,-0.338L0.126,-0.706L0.482,-0.706L0.482,-0.622L0.197,-0.622L0.158,-0.43C0.201,-0.46 0.246,-0.475 0.293,-0.475C0.356,-0.475 0.409,-0.453 0.452,-0.41C0.495,-0.366 0.516,-0.311 0.516,-0.243C0.516,-0.178 0.497,-0.122 0.459,-0.075C0.414,-0.017 0.351,0.012 0.271,0.012C0.206,0.012 0.153,-0.006 0.112,-0.042C0.071,-0.079 0.047,-0.127 0.042,-0.188Z" style="fill:rgb(236,54,31);"/>
                </g>
            </g>
        </g>
    </g>
</svg>
